<svg width="27" height="27" viewBox="0 0 27 27" fill="none" xmlns="http://www.w3.org/2000/svg">
<path d="M21.375 9C20.4375 9 19.6406 8.67188 18.9844 8.01562C18.3281 7.35938 18 6.5625 18 5.625C18 4.6875 18.3281 3.89062 18.9844 3.23438C19.6406 2.57812 20.4375 2.25 21.375 2.25C22.3125 2.25 23.1094 2.57812 23.7656 3.23438C24.4219 3.89062 24.75 4.6875 24.75 5.625C24.75 6.5625 24.4219 7.35938 23.7656 8.01562C23.1094 8.67188 22.3125 9 21.375 9ZM4.5 22.5C3.88125 22.5 3.35156 22.2797 2.91094 21.8391C2.47031 21.3984 2.25 20.8687 2.25 20.25V6.75C2.25 6.13125 2.47031 5.60156 2.91094 5.16094C3.35156 4.72031 3.88125 4.5 4.5 4.5H15.8625C15.7875 4.875 15.75 5.25 15.75 5.625C15.75 6 15.7875 6.375 15.8625 6.75C15.9938 7.35 16.2094 7.90781 16.5094 8.42344C16.8094 8.93906 17.175 9.39375 17.6063 9.7875L13.5 12.375L4.5 6.75V9L13.5 14.625L19.4344 10.9125C19.7531 11.025 20.0719 11.1094 20.3906 11.1656C20.7094 11.2219 21.0375 11.25 21.375 11.25C21.975 11.25 22.5656 11.1562 23.1469 10.9688C23.7281 10.7812 24.2625 10.5 24.75 10.125V20.25C24.75 20.8687 24.5297 21.3984 24.0891 21.8391C23.6484 22.2797 23.1187 22.5 22.5 22.5H4.5Z" fill="white"/>
</svg>
